{"title":"The.Fault.In.Our.Stars.2014.AVI.BRRip.360p.DivX.NLsub.{Th3Sp3cia","uid":10925774,"size":1508882364,"categoryP":"video","categoryS":"hd___movies","magnet":"?xt=urn:btih:8ec22fe70b206e3756b9238c6696dcf986e9e944&amp;dn=The.Fault.In.Our.Stars.2014.AVI.BRRip.360p.DivX.NLsub.%7BTh3Sp3cia&amp;tr=udp%3A%2F%2Ftracker.openbittorrent.com%3A80&amp;tr=udp%3A%2F%2Fopen.demonii.com%3A1337&amp;tr=udp%3A%2F%2Ftracker.coppersurfer.tk%3A6969&amp;tr=udp%3A%2F%2Fexodus.desync.com%3A6969","seeders":5,"leechers":1,"uploader":"HOLLANDmovies","files":-1,"time":1409363750,"description":"THE FAULT OF THE STARS \n\nINFO\n\nThe Fault in Our Stars (2014)\n12 126 min - Drama | Romance\n\nHazel and Gus are two teenagers who share an acerbic wit, a disdain for the conventional, and a love that sweeps them on a journey. Their relationship is all the more miraculous given that Hazel's other constant companion is an oxygen tank, Gus jokes about his prosthetic leg, and they met and fell in love at a cancer support group.\n\nDirector: Josh Boone\nWriters: Scott Neustadter (screenplay), Michael H. Weber (screenplay)\nStars: Shailene Woodley, Ansel Elgort, Nat Wolff \n\nGENERAL:\n\n\n\nComplete name : The.Fault.In.Our.Stars.2014.AVI.BRRip.360p.DivX.NLsub.{Th3Sp3cialist}.Movie.avi\nFormat : AVI\nFormat/Info : Audio Video Interleave\nFormat profile : OpenDML\nFile size : 1.39 GiB\nDuration : 2h 12mn\nOverall bit rate : 1 502 Kbps\n\nVideo\nID : 0\noriginal Source : The.Fault.In.Our.Stars.2014.AVI.BRRip.720p.DivX.NLsub.{Th3Sp3cialist}\nFormat : xvid\nCodec ID : xvid\nDuration : 2h 12mn\nBit rate : 1 167 Kbps\nWidth : 640 pixels\nHeight : 360 pixels\nDisplay aspect ratio : 16:9\nFrame rate : 24.000 fps\nBits/(Pixel*Frame) : 0.211\nStream size : 1.08 GiB (78%)\n\nAudio\nID : 1\nFormat : MPEG Audio\nFormat version : Version 1\nFormat profile : Layer 3\nMode : Joint stereo\nMode extension : MS Stereo\nCodec ID : 55\nCodec ID/Hint : MP3\nDuration : 2h 12mn\nBit rate mode : Constant\nBit rate : 320 Kbps\nChannel(s) : 2 channels\nSampling rate : 48.0 KHz\nCompression mode : Lossy\nStream size : 304 MiB (21%)\nAlignment : Aligned on interleaves\n &lt;a href=&quot;\nhttp://bayimg.com/PAaIFaAGB&quot; rel=&quot;nofollow&quot; target=&quot;_NEW&quot;&gt;\nhttp://bayimg.com/PAaIFaAGB&lt;/a&gt; &lt;a href=&quot;\nhttp://bayimg.com/PaAigaAGb&quot; rel=&quot;nofollow&quot; target=&quot;_NEW&quot;&gt;\nhttp://bayimg.com/PaAigaAGb&lt;/a&gt; &lt;a href=&quot;\nhttp://bayimg.com/pAaiiaagB&quot; rel=&quot;nofollow&quot; target=&quot;_NEW&quot;&gt;\nhttp://bayimg.com/pAaiiaagB&lt;/a&gt;\n","torrent":{"xt":"urn:btih:8ec22fe70b206e3756b9238c6696dcf986e9e944","amp;dn":"The.Fault.In.Our.Stars.2014.AVI.BRRip.360p.DivX.NLsub.%7BTh3Sp3cia","amp;tr":["udp%3A%2F%2Ftracker.openbittorrent.com%3A80","udp%3A%2F%2Fopen.demonii.com%3A1337","udp%3A%2F%2Ftracker.coppersurfer.tk%3A6969","udp%3A%2F%2Fexodus.desync.com%3A6969"],"infoHash":"8ec22fe70b206e3756b9238c6696dcf986e9e944","infoHashBuffer":{"type":"Buffer","data":[142,194,47,231,11,32,110,55,86,185,35,140,102,150,220,249,134,233,233,68]},"announce":[],"urlList":[]}}